PathFileType   4   (X/Y/Z)
DataRate	CameraRate	NumFrames	NumMarkers	Units	OrigDataRate	OrigDataStartFrame	OrigNumFrames
120.0	120.0	7	37	mm	120.0	137	156
Frame#	Time	midhip	hip_r	hip_l	knee_r	knee_l	ankle_r	ankle_l	midasis	asis_r	asis_l	psis_r	psis_l	epicondLat_r	epicondLat_l	epicondMed_r	epicondMed_l	malleolusLat_r	malleolusLat_l	malleolusMedv_r	malleolusMedv_l	neck	subclavicle_r	subclavicle_l	sternalnotch	xyphoidprocess	thighwand_r	thighwand_l	upperleg1_r	upperleg1_l	upperleg2_r	upperleg2_l	shankwand_r	shankwand_l	lowerleg1_r	lowerleg1_l	toe_r	toe_l
 	 	X1	Y1	Z1	X2	Y2	Z2	X3	Y3	Z3	X4	Y4	Z4	X5	Y5	Z5	X6	Y6	Z6	X7	Y7	Z7	X8	Y8	Z8	X9	Y9	Z9	X10	Y10	Z10	X11	Y11	Z11	X12	Y12	Z12	X13	Y13	Z13	X14	Y14	Z14	X15	Y15	Z15	X16	Y16	Z16	X17	Y17	Z17	X18	Y18	Z18	X19	Y19	Z19	X20	Y20	Z20	X21	Y21	Z21	X22	Y22	Z22	X23	Y23	Z23	X24	Y24	Z24	X25	Y25	Z25	X26	Y26	Z26	X27	Y27	Z27	X28	Y28	Z28	X29	Y29	Z29	X30	Y30	Z30	X31	Y31	Z31	X32	Y32	Z32	X33	Y33	Z33	X34	Y34	Z34	X35	Y35	Z35	X36	Y36	Z36	X37	Y37	Z37

	137	1.40000	2261.882	810.041	-239.405	2252.157	793.648	-164.790	2244.761	795.280	-316.729	2185.001	436.576	-188.924	2423.053	436.868	-352.481	2085.366	69.835	-207.365	2500.999	83.780	-364.636	2342.363	863.948	-241.541	2344.254	862.740	-121.667	2340.472	865.156	-361.415	2150.644	934.544	-210.585	2146.149	927.965	-265.294	2190.788	431.601	-131.428	2421.165	441.691	-410.250	2183.361	439.680	-241.571	2433.712	445.110	-292.165	2070.677	71.957	-170.220	2482.096	80.816	-399.762	2098.916	77.481	-239.894	2515.281	96.906	-342.595	2223.047	1365.123	-233.930	2353.592	1303.688	-194.883	2344.117	1297.277	-300.248	2345.437	1297.211	-246.677	2384.969	1227.676	-249.692	2367.195	539.516	-203.159	2389.534	572.742	-493.915	2316.206	600.561	-141.858	2317.382	589.819	-426.662	2286.078	516.961	-144.590	2363.950	516.170	-420.232	2080.929	145.920	-95.452	2562.661	229.813	-367.568	2085.922	156.132	-137.789	2523.398	218.491	-369.910	2180.331	37.526	-178.629	2602.109	83.048	-407.259
	138	1.40833	2269.008	809.358	-240.614	2258.818	792.895	-165.963	2252.016	794.475	-317.930	2188.496	436.541	-189.513	2429.069	435.640	-352.296	2085.340	70.489	-207.688	2514.837	83.946	-366.297	2349.364	863.115	-242.386	2350.786	861.950	-122.566	2347.942	864.279	-362.207	2157.566	933.800	-212.021	2153.332	927.247	-266.791	2194.254	431.605	-132.011	2427.369	440.336	-410.081	2186.244	440.996	-242.439	2437.419	441.067	-293.219	2070.626	72.793	-170.564	2496.564	80.901	-401.749	2098.858	78.338	-240.211	2528.770	97.228	-344.148	2230.075	1364.364	-235.177	2360.350	1303.057	-196.568	2351.347	1296.458	-301.280	2352.366	1296.399	-247.788	2392.016	1226.969	-250.755	2371.723	538.440	-203.919	2396.441	571.162	-493.897	2321.383	599.901	-142.434	2323.228	588.830	-427.110	2290.058	516.526	-145.366	2369.699	513.644	-421.023	2081.531	146.905	-95.850	2573.145	231.411	-366.936	2086.571	157.373	-138.020	2534.084	219.833	-370.568	2180.469	37.596	-178.674	2616.867	85.239	-406.615
	139	1.41667	2276.292	808.718	-241.871	2265.596	792.136	-167.171	2259.377	793.660	-319.164	2192.122	436.484	-190.078	2435.055	434.411	-352.102	2085.232	71.213	-207.981	2527.856	84.052	-367.788	2356.473	862.275	-243.275	2357.435	861.158	-123.521	2355.511	863.393	-363.029	2164.598	933.060	-213.537	2160.603	926.514	-268.339	2197.831	431.600	-132.567	2433.630	439.014	-409.902	2190.343	441.294	-242.977	2439.334	436.120	-293.837	2070.550	73.690	-170.856	2510.180	80.971	-403.538	2098.458	79.088	-240.556	2541.154	97.431	-345.492	2237.068	1363.643	-236.616	2367.002	1301.932	-197.957	2358.451	1295.661	-302.421	2359.347	1295.590	-248.921	2398.742	1225.935	-252.070	2376.379	537.354	-204.609	2403.619	569.613	-493.852	2326.552	599.217	-143.323	2329.907	587.803	-427.670	2294.817	516.482	-146.085	2374.916	511.166	-421.725	2082.271	147.956	-96.163	2583.097	232.758	-366.275	2087.430	158.524	-138.349	2544.260	220.247	-370.643	2180.570	37.646	-178.645	2630.653	87.241	-405.890
	140	1.42500	2283.553	807.976	-242.944	2272.486	791.379	-168.413	2266.836	792.839	-320.428	2195.927	436.405	-190.609	2441.031	433.194	-351.918	2085.147	72.000	-208.215	2539.972	84.039	-369.061	2363.686	861.434	-244.207	2364.199	860.370	-124.521	2363.173	862.498	-363.893	2171.735	932.337	-215.140	2167.957	925.770	-269.949	2201.561	431.593	-133.084	2439.987	437.750	-409.730	2194.488	441.642	-243.970	2442.490	433.321	-293.244	2070.522	74.653	-171.079	2522.858	80.958	-405.084	2097.886	79.649	-240.917	2552.461	97.457	-346.309	2243.912	1362.762	-238.084	2373.897	1300.748	-198.564	2365.446	1294.948	-303.622	2366.396	1294.774	-250.081	2405.617	1224.960	-253.266	2381.192	536.236	-205.206	2411.120	568.133	-493.763	2331.519	598.135	-144.259	2337.159	586.459	-428.444	2299.486	516.663	-146.903	2380.804	509.485	-421.960	2083.141	149.084	-96.397	2592.502	233.813	-365.571	2088.330	159.423	-138.815	2553.591	220.823	-370.897	2180.619	37.683	-178.534	2643.418	88.943	-405.111
	141	1.43333	2290.972	807.306	-243.927	2279.474	790.621	-169.698	2274.386	792.019	-321.734	2199.963	436.307	-191.105	2447.022	431.995	-351.772	2085.221	72.840	-208.344	2551.098	83.854	-370.070	2370.994	860.591	-245.184	2371.063	859.578	-125.558	2370.924	861.604	-364.811	2178.967	931.630	-216.836	2175.395	925.020	-271.631	2205.490	431.590	-133.562	2446.476	436.558	-409.590	2198.681	441.939	-245.327	2446.665	430.522	-293.381	2070.629	75.685	-171.210	2534.508	80.801	-406.339	2098.357	79.672	-240.960	2563.306	97.729	-347.199	2250.836	1361.845	-239.589	2381.049	1300.055	-198.959	2372.652	1294.227	-304.983	2373.512	1293.961	-251.267	2412.927	1224.317	-254.131	2386.184	535.074	-205.695	2418.986	566.747	-493.612	2336.649	597.253	-145.248	2344.197	584.951	-429.030	2303.892	516.265	-147.852	2387.101	508.019	-422.462	2084.121	150.297	-96.561	2601.348	234.526	-364.810	2089.762	159.796	-139.236	2563.065	222.890	-372.036	2180.613	37.717	-178.343	2655.111	90.230	-404.300
	142	1.44167	2298.599	806.780	-245.033	2286.549	789.856	-171.045	2282.023	791.211	-323.099	2204.267	436.192	-191.575	2453.054	430.810	-351.692	2085.588	73.713	-208.323	2561.157	83.448	-370.768	2378.389	859.747	-246.214	2378.017	858.770	-126.636	2378.761	860.723	-365.792	2186.283	930.938	-218.631	2182.918	924.273	-273.395	2209.651	431.597	-134.008	2453.130	435.433	-409.507	2203.450	442.032	-246.849	2451.858	427.935	-293.901	2070.962	76.787	-171.220	2545.051	80.439	-407.258	2098.533	80.615	-241.051	2573.272	97.864	-347.975	2257.878	1361.059	-241.350	2388.227	1299.508	-199.865	2379.968	1293.336	-306.588	2380.674	1293.173	-252.497	2420.261	1223.634	-255.121	2391.369	533.861	-206.078	2427.231	565.463	-493.393	2341.935	596.387	-146.006	2351.238	583.598	-429.623	2308.600	515.645	-148.767	2394.111	506.483	-423.115	2085.185	151.606	-96.658	2609.633	234.841	-363.981	2090.791	160.974	-139.265	2571.739	221.944	-370.104	2180.561	37.764	-178.089	2665.675	90.999	-403.467
	143	1.45000	2305.997	805.998	-246.345	2293.684	789.078	-172.489	2289.745	790.426	-324.559	2208.839	436.059	-192.026	2459.151	429.626	-351.688	2086.312	74.619	-208.119	2570.097	82.770	-371.120	2385.862	858.900	-247.308	2385.030	857.932	-127.774	2386.695	859.868	-366.843	2193.691	930.255	-220.524	2190.532	923.538	-275.252	2214.047	431.620	-134.432	2459.967	434.356	-409.489	2208.735	442.200	-248.320	2457.069	425.213	-294.575	2071.567	77.968	-171.088	2554.431	79.815	-407.806	2098.685	82.280	-241.075	2581.894	97.302	-347.998	2264.880	1360.352	-243.102	2395.308	1298.838	-201.159	2387.505	1292.260	-308.204	2387.884	1292.416	-253.795	2427.602	1222.767	-256.153	2396.753	532.595	-206.373	2435.843	564.274	-493.111	2347.448	595.582	-146.146	2358.623	582.534	-430.177	2313.705	514.842	-149.422	2401.386	505.033	-423.804	2086.323	153.019	-96.682	2617.360	234.696	-363.078	2091.592	162.743	-138.949	2579.721	221.546	-369.228	2180.484	37.833	-177.794	2675.067	91.154	-402.600
